<svg width="249" height="131" viewBox="0 0 249 131" fill="none" xmlns="http://www.w3.org/2000/svg">
<g clip-path="url(#clip0_35_4)">
<path d="M27.0182 104.968C27.8325 102.476 28.7448 100.007 29.8001 97.5877C30.8543 95.1631 32.0596 92.8011 33.4096 90.5145C34.848 88.0793 36.4701 85.7475 38.2628 83.5374C40.6516 80.5605 43.4595 77.9134 46.6065 75.6712C48.1962 74.5471 49.8868 73.5596 51.6586 72.7202C52.57 72.2792 53.5192 71.9133 54.4957 71.6264C55.5362 71.3174 56.6229 71.1748 57.712 71.2045C58.3106 71.224 58.9029 71.3292 59.4689 71.5167C60.1035 71.7242 60.6774 72.0731 61.1431 72.5345C61.6222 73.0182 61.9567 73.6161 62.1113 74.2657C62.253 74.8651 62.2665 75.4858 62.151 76.0903C62.0473 76.6495 61.8613 77.1917 61.5983 77.7009C61.3504 78.1732 61.057 78.6224 60.7218 79.0426C60.1091 79.826 59.4296 80.5595 58.6902 81.2357C57.2299 82.5734 55.5878 83.7168 53.808 84.6353C52.0216 85.5579 50.1052 86.2293 48.1181 86.6287C45.6452 87.1329 43.0907 87.148 40.6115 86.673C40.275 86.6033 39.9434 86.5135 39.6187 86.4041C39.283 86.2913 38.9576 86.152 38.646 85.9877C38.0046 85.6647 37.4268 85.2375 36.9387 84.7251C36.4455 84.2029 36.06 83.5964 35.8022 82.9375C35.5578 82.3088 35.412 81.6491 35.3693 80.9796C35.3046 79.7342 35.4574 78.4871 35.8212 77.2895C35.9843 76.7121 36.1792 76.1432 36.4049 75.5854C36.5171 75.3084 36.633 75.0334 36.7578 74.7627C36.8809 74.4902 37.0092 74.2391 37.1349 73.9763C38.142 71.8967 39.2908 69.8826 40.574 67.9468C45.7456 60.2137 52.855 53.8369 61.2577 49.3949C61.5689 49.2228 61.8899 49.0668 62.2092 48.9073C62.5297 48.7503 62.8464 48.5859 63.1714 48.4365C63.822 48.1395 64.4686 47.8346 65.1316 47.5657C66.4452 47.003 67.7883 46.5178 69.1238 46.067C70.1908 45.7106 71.2796 45.4175 72.3842 45.1893C72.8329 45.1026 73.2329 45.0318 73.5899 44.9814C73.9492 44.9384 74.264 44.9101 74.5386 44.8946C75.3384 44.8495 75.369 44.9994 74.7548 45.2898C74.6012 45.3624 74.4072 45.4438 74.1747 45.533C73.9416 45.6199 73.6721 45.7204 73.3659 45.8346C73.0604 45.9476 72.7188 46.0681 72.3409 46.1963C71.966 46.3316 71.5582 46.4808 71.1158 46.6333C68.7904 47.456 66.5139 48.3998 64.2967 49.4606C59.2299 51.8835 54.5933 55.0532 50.5573 58.8536C46.5237 62.6248 43.1547 66.9945 40.5808 71.7937C40.4082 72.1248 40.2347 72.4574 40.0605 72.7914C39.8968 73.1299 39.7326 73.4692 39.5681 73.8096C39.3981 74.1471 39.2545 74.4968 39.0969 74.8401C38.942 75.1857 38.7833 75.5295 38.6515 75.8631C38.1075 77.1504 37.7627 78.5066 37.6278 79.8889C37.5463 80.9194 37.7033 81.9155 38.1761 82.6941C38.4179 83.0842 38.7372 83.4253 39.116 83.6982C39.3139 83.8402 39.5242 83.9659 39.7446 84.0739C39.9638 84.188 40.1938 84.2821 40.4316 84.3548C40.6807 84.4325 40.9348 84.4949 41.1923 84.5417L42.0376 84.6721C42.3229 84.7018 42.6081 84.7346 42.8941 84.7603C43.1815 84.7733 43.4682 84.7968 43.7561 84.8022C44.9125 84.8256 46.0683 84.7346 47.2051 84.5305C49.4941 84.1151 51.6832 83.2992 53.6622 82.124C54.6534 81.5351 55.5922 80.8694 56.4693 80.1336C57.3393 79.4108 58.1313 78.6066 58.8336 77.733L59.0205 77.4894L59.1135 77.3673L59.1932 77.2533C59.2983 77.1036 59.3944 76.9485 59.4814 76.7886C59.6492 76.4823 59.7745 76.1564 59.854 75.8191C59.9272 75.5153 59.9411 75.2012 59.895 74.8926C59.8749 74.7558 59.8363 74.622 59.7802 74.4947C59.7305 74.3737 59.6625 74.2602 59.5783 74.158C59.4963 74.0525 59.3987 73.9589 59.2885 73.8801C59.1713 73.7926 59.0436 73.7185 58.9082 73.6593C58.5947 73.5273 58.2613 73.4433 57.9204 73.4104C57.5368 73.3722 57.1501 73.3716 56.7663 73.4085C56.3638 73.4455 55.9647 73.5108 55.5723 73.6039C54.7503 73.8068 53.9495 74.0815 53.18 74.4244C52.7833 74.596 52.3879 74.7807 51.9919 74.9752C51.5998 75.1692 51.2116 75.3703 50.8274 75.5785C49.2893 76.4245 47.8218 77.3826 46.4377 78.4441C43.9561 80.3533 41.7143 82.5309 39.7571 84.9333C37.7882 87.3508 36.0491 89.9315 34.5606 92.6447C33.8103 94.0023 33.1104 95.3856 32.461 96.7947C32.139 97.4995 31.8235 98.207 31.5322 98.9254L31.0902 100.001L30.6711 101.086C30.3854 101.807 30.1378 102.542 29.8709 103.27C29.6265 104.006 29.3658 104.737 29.1378 105.479C28.6587 106.955 28.2333 108.449 27.8188 109.946C26.5196 114.731 25.3959 119.286 24.048 123.282C23.43 125.119 22.901 124.894 23.1859 122.679C23.6287 119.551 24.1834 116.278 24.8819 113.035C25.4512 110.369 26.2219 107.662 27.0489 105.003C27.0382 104.992 27.0286 104.981 27.0182 104.968Z" fill="#5A5A5A"/>
<path d="M34.5681 110.331C33.3566 111.47 32.2392 112.698 31.226 114.003C30.9667 114.356 30.7027 114.709 30.4477 115.068C30.2052 115.436 29.9674 115.807 29.7415 116.183C28.794 117.828 27.9723 119.557 27.174 121.311L25.989 123.958C25.5943 124.843 25.2068 125.736 24.7874 126.614L24.7812 126.627C24.6369 126.929 24.373 127.164 24.0475 127.28C23.7221 127.396 23.3617 127.383 23.0457 127.245C22.8468 127.157 22.674 127.023 22.5427 126.856C22.4114 126.688 22.3257 126.492 22.2934 126.284L21.8895 123.594C21.4372 120.697 20.986 117.796 20.5539 114.887C20.123 111.978 19.7102 109.061 19.3765 106.121C19.288 105.23 19.2504 104.335 19.2637 103.44C19.262 102.591 19.4933 102.022 19.8087 101.663C20.2715 101.141 20.8402 101.601 21.0815 102.756C21.2345 103.519 21.34 104.29 21.3973 105.065C21.7263 108.613 22.2939 112.138 23.0965 115.616C23.3143 116.58 23.579 117.577 23.6603 118.535C23.8716 121.016 24.3443 123.475 24.7496 125.939L22.521 125.645C22.7622 125.115 23.0116 124.588 23.2788 124.07C24.3244 122.022 25.2618 119.903 26.3753 117.844C27.3619 115.986 28.4975 114.204 29.7719 112.514C31.0646 110.835 32.508 109.268 34.0859 107.829C34.3998 107.546 34.7164 107.273 35.0359 107.015C35.3639 106.767 35.6957 106.535 36.031 106.319C36.6773 105.897 37.3755 105.553 38.1096 105.294C38.4377 105.18 38.6735 105.223 38.7748 105.374C38.8728 105.522 38.8491 105.791 38.6234 106.089C38.2847 106.491 37.9165 106.878 37.5544 107.272C37.1949 107.67 36.8216 108.058 36.4444 108.438C36.1463 108.76 35.8254 109.066 35.4975 109.369L35.2511 109.595L35.0144 109.829C34.8575 109.986 34.7009 110.143 34.5445 110.299L34.5681 110.331Z" fill="#5A5A5A"/>
<path d="M89.2171 47.7615C89.1013 47.9317 88.9654 48.0434 88.8096 48.0968C88.6538 48.1501 88.4976 48.1578 88.341 48.12C88.1974 48.0691 88.0665 47.9855 87.9484 47.8692C87.8302 47.74 87.7638 47.5777 87.7492 47.3825C87.7217 47.2004 87.7078 47.0834 87.7073 47.0313C87.6805 46.9273 87.6601 46.8233 87.6463 46.7193C87.6324 46.6152 87.6121 46.5112 87.5852 46.4072C87.531 46.1472 87.4769 45.8872 87.4227 45.6273C87.3816 45.3672 87.3274 45.1072 87.2603 44.8473C87.1118 44.1844 86.9569 43.5345 86.7955 42.8978C86.6341 42.248 86.4792 41.5982 86.3308 40.9483C86.1829 40.3635 86.035 39.7787 85.8871 39.194C85.7391 38.5962 85.5912 38.0049 85.4433 37.4201C85.3897 37.2252 85.3426 37.0303 85.302 36.8353C85.2613 36.6403 85.2142 36.4453 85.1606 36.2504C85.1337 36.1465 85.1068 36.036 85.0798 35.919C85.0527 35.789 85.0453 35.6719 85.0575 35.5676C85.0818 35.3461 85.1584 35.1632 85.2875 35.0189C85.4295 34.8615 85.6111 34.782 85.8325 34.7802C86.0278 34.7786 86.2107 34.8553 86.3812 35.0102C86.5646 35.152 86.6442 35.3336 86.6199 35.5552C86.6336 35.6332 86.6406 35.6983 86.641 35.7504C86.6545 35.8023 86.6744 35.8608 86.701 35.9257C86.7417 36.1337 86.7824 36.3352 86.823 36.5302C86.8766 36.7251 86.9238 36.92 86.9644 37.115C87.1125 37.7258 87.2605 38.3301 87.4085 38.9279C87.5694 39.5126 87.7239 40.1038 87.8718 40.7016C88.0203 41.3515 88.1686 41.9949 88.3169 42.6318C88.4782 43.2685 88.6331 43.9118 88.7815 44.5617C88.8086 44.6917 88.8356 44.8152 88.8626 44.9322C88.8895 45.0492 88.9165 45.1661 88.9435 45.2831C89.3679 44.6156 89.7727 43.9418 90.1579 43.2617C90.5561 42.5684 90.9281 41.8622 91.2739 41.1433C91.6966 40.2675 92.0735 39.3596 92.4046 38.4194C92.7357 37.4792 92.9299 36.5206 92.9872 35.5436C92.9986 35.3351 93.0754 35.1653 93.2176 35.0339C93.3597 34.9026 93.5154 34.8232 93.6844 34.7958C93.8535 34.7684 94.0165 34.7997 94.1735 34.8896C94.3434 34.9663 94.4552 35.1152 94.5091 35.3361C94.737 36.1677 94.9391 37.0125 95.1152 37.8705C95.3043 38.7283 95.4934 39.5797 95.6824 40.4246C95.8844 41.2694 96.1059 42.1075 96.3469 42.9389C96.601 43.7703 96.9134 44.5816 97.2843 45.373C97.658 44.8752 97.9859 44.3582 98.2681 43.8221C98.5502 43.273 98.78 42.6917 98.9574 42.0783C99.2618 41.0602 99.4619 40.0299 99.5578 38.9875C99.6666 37.9319 99.7689 36.8763 99.8647 35.8209C99.889 35.6123 99.9657 35.4294 100.095 35.2721C100.237 35.1147 100.418 35.0352 100.64 35.0334C100.835 35.0319 101.018 35.1085 101.188 35.2634C101.372 35.4052 101.451 35.5869 101.427 35.8084C101.319 36.9682 101.211 38.1214 101.103 39.2681C100.995 40.4018 100.769 41.5235 100.427 42.633C100.134 43.5338 99.7568 44.3636 99.2941 45.1226C98.8444 45.8814 98.3098 46.6148 97.6905 47.3229C97.5226 47.5065 97.3019 47.5864 97.0283 47.5626C96.7676 47.5256 96.5777 47.3969 96.4588 47.1765C96.1023 46.5543 95.7912 45.9122 95.5255 45.2502C95.2598 44.5883 95.0266 43.9195 94.8259 43.244C94.6252 42.5685 94.444 41.8863 94.2822 41.1975C94.1204 40.4956 93.9651 39.8002 93.8164 39.1113C93.485 40.0124 93.108 40.9009 92.6852 41.7766C92.1857 42.8223 91.6404 43.8423 91.0494 44.8366C90.4582 45.8179 89.8474 46.7929 89.2171 47.7615ZM103.126 40.6193C103.37 40.2788 103.661 39.977 103.997 39.7139C104.347 39.4506 104.716 39.2459 105.106 39.0995C105.495 38.9402 105.898 38.8589 106.315 38.8555C106.731 38.8392 107.149 38.914 107.567 39.0799C107.971 39.233 108.338 39.4449 108.665 39.7158C108.993 39.9736 109.25 40.3101 109.435 40.7253C109.581 41.0366 109.668 41.3745 109.697 41.7389C109.726 42.1032 109.631 42.436 109.412 42.7372C109.219 43.0122 108.98 43.2225 108.694 43.368C108.422 43.5134 108.124 43.6199 107.799 43.6876C107.487 43.7552 107.161 43.7904 106.823 43.7931C106.497 43.7956 106.185 43.7916 105.885 43.781C105.547 43.7707 105.208 43.7473 104.869 43.7109C104.543 43.6745 104.211 43.6381 103.872 43.6017C103.981 44.1868 104.193 44.7059 104.509 45.1592C104.826 45.6124 105.251 45.9541 105.787 46.1842C105.931 46.2351 106.042 46.2733 106.12 46.2987C106.159 46.3114 106.192 46.3242 106.218 46.337C106.257 46.3367 106.296 46.3364 106.335 46.3361C106.439 46.3483 106.524 46.3606 106.589 46.3731C106.668 46.3725 106.739 46.3654 106.804 46.3519C106.895 46.3381 106.954 46.3312 106.98 46.3309C107.019 46.3176 107.058 46.3043 107.097 46.2909C107.24 46.2507 107.363 46.2042 107.467 46.1513C107.583 46.0983 107.719 46.0125 107.875 45.8941C107.952 45.8284 108.056 45.7299 108.185 45.5987C108.314 45.4674 108.424 45.3494 108.514 45.2445C108.643 45.0612 108.798 44.9362 108.98 44.8697C109.175 44.803 109.37 44.8275 109.566 44.9431C109.737 45.0459 109.855 45.2078 109.922 45.4286C110.002 45.6363 109.977 45.8318 109.848 46.0151C109.475 46.5259 109.029 46.9657 108.511 47.3344C108.006 47.69 107.422 47.8835 106.758 47.9148C106.224 47.9451 105.709 47.858 105.213 47.6536C104.716 47.4362 104.278 47.1468 103.897 46.7852C103.425 46.3332 103.05 45.8088 102.771 45.2121C102.493 44.6153 102.339 44.0045 102.308 43.3798C102.19 43.2896 102.098 43.1796 102.032 43.0499C101.978 42.9071 101.958 42.764 101.97 42.6207C101.994 42.4773 102.046 42.3467 102.123 42.2289C102.2 42.098 102.316 42.0125 102.472 41.9722C102.612 41.4893 102.829 41.0383 103.126 40.6193ZM107.817 41.0507C107.672 40.8695 107.449 40.7085 107.149 40.5677C106.901 40.4655 106.607 40.4158 106.269 40.4184C105.943 40.421 105.664 40.4819 105.43 40.6009C105.132 40.7465 104.867 40.9505 104.634 41.2127C104.402 41.462 104.215 41.7434 104.075 42.0571C104.387 42.0936 104.7 42.1302 105.013 42.1668C105.326 42.2034 105.638 42.2269 105.951 42.2374C106.12 42.2361 106.29 42.2347 106.459 42.2334C106.628 42.2321 106.797 42.2242 106.966 42.2098C107.019 42.2094 107.064 42.209 107.103 42.2087C107.155 42.1953 107.207 42.1884 107.259 42.188C107.376 42.161 107.461 42.1473 107.513 42.1469C107.578 42.1333 107.643 42.1133 107.708 42.0867C107.76 42.0733 107.825 42.0532 107.903 42.0266C107.967 42 108.006 41.9802 108.019 41.9671C108.032 41.9539 108.052 41.9408 108.078 41.9275L108.134 41.6927C108.108 41.6408 108.088 41.5954 108.075 41.5565C108.074 41.5044 108.061 41.4589 108.034 41.42C108.021 41.3811 107.988 41.3228 107.935 41.245C107.896 41.1672 107.856 41.1024 107.817 41.0507ZM112.458 32.7908C112.693 32.7889 112.875 32.8656 113.007 33.0208C113.138 33.176 113.218 33.3577 113.246 33.5658C113.386 34.8017 113.467 36.0381 113.49 37.2749C113.513 38.5118 113.503 39.7489 113.461 40.9862C113.432 42.2235 113.376 43.4609 113.295 44.6986C113.214 45.9362 113.132 47.1674 113.051 48.392C113.027 48.6136 112.944 48.7966 112.801 48.9409C112.672 49.0982 112.497 49.1777 112.276 49.1795C112.081 49.181 111.898 49.1044 111.727 48.9495C111.557 48.8076 111.477 48.6259 111.489 48.4045C111.57 47.1798 111.651 45.9487 111.733 44.711C111.827 43.4733 111.889 42.2357 111.918 40.9985C111.96 39.7611 111.97 38.524 111.947 37.2872C111.924 36.0504 111.843 34.814 111.703 33.5781C111.675 33.37 111.745 33.1871 111.913 33.0295C112.081 32.8719 112.263 32.7924 112.458 32.7908ZM121.161 46.5305C121.215 46.7124 121.19 46.9079 121.088 47.1171C120.985 47.3262 120.83 47.4512 120.622 47.4919C119.92 47.6147 119.223 47.6137 118.532 47.489C117.841 47.3513 117.201 47.0569 116.611 46.6058C116.035 46.1547 115.62 45.5785 115.367 44.8774C115.127 44.1631 115.082 43.4473 115.233 42.73C115.371 42.0908 115.666 41.5351 116.118 41.0627C116.57 40.5903 117.088 40.2216 117.672 39.9566C118.19 39.705 118.736 39.5054 119.307 39.3576C119.879 39.2098 120.452 39.1597 121.025 39.2072C121.247 39.2315 121.43 39.3146 121.574 39.4567C121.731 39.5857 121.811 39.7608 121.813 39.9822C121.814 40.1775 121.737 40.3604 121.582 40.5309C121.441 40.7013 121.259 40.7809 121.037 40.7696C120.621 40.7339 120.211 40.7567 119.808 40.838C119.405 40.9193 119.015 41.0462 118.639 41.2184C118.418 41.3244 118.198 41.4368 117.977 41.5557C117.77 41.6746 117.589 41.8062 117.433 41.9507C117.265 42.1083 117.123 42.2657 117.008 42.4229C116.905 42.5799 116.828 42.7628 116.778 42.9716C116.727 43.1803 116.709 43.4018 116.724 43.6361C116.739 43.8704 116.78 44.1044 116.847 44.3383C116.927 44.559 117.033 44.7665 117.164 44.9608C117.296 45.142 117.454 45.297 117.637 45.4258C118.017 45.6962 118.428 45.8817 118.872 45.9823C119.328 46.0699 119.771 46.0728 120.2 45.9913C120.408 45.9506 120.604 45.9751 120.787 46.0648C120.97 46.1545 121.095 46.3097 121.161 46.5305ZM127.645 38.9982C128.061 38.9428 128.497 38.9263 128.953 38.9487C129.409 38.9581 129.846 39.0328 130.263 39.1727C130.681 39.2996 131.06 39.4984 131.401 39.7691C131.742 40.0398 132.005 40.3958 132.191 40.8371C132.323 41.1485 132.391 41.467 132.394 41.7925C132.409 42.1049 132.366 42.4113 132.264 42.7116C132.175 42.9987 132.034 43.2798 131.841 43.5548C131.661 43.8167 131.448 44.0592 131.202 44.2826C130.672 44.7686 130.09 45.1834 129.455 45.527C128.819 45.8706 128.151 46.1363 127.449 46.3242C127.15 46.4047 126.838 46.4788 126.513 46.5465C126.201 46.6011 125.882 46.6297 125.557 46.6323C125.231 46.6349 124.912 46.6048 124.599 46.5422C124.286 46.4666 123.992 46.3452 123.717 46.1781C123.521 46.0625 123.403 45.9072 123.362 45.7122C123.282 45.4915 123.196 45.2838 123.103 45.0893C123.01 44.8947 122.918 44.6936 122.825 44.486C122.745 44.2783 122.678 44.0705 122.625 43.8626C122.571 43.6546 122.543 43.44 122.541 43.2187C122.538 42.776 122.626 42.3586 122.805 41.9665C122.997 41.5613 123.255 41.2077 123.578 40.9057C124.12 40.3805 124.749 39.9588 125.462 39.6406C126.176 39.3224 126.903 39.1083 127.645 38.9982ZM129.865 40.6603C129.512 40.5329 129.134 40.4708 128.731 40.474C128.301 40.4644 127.872 40.5134 127.443 40.621C127.014 40.7155 126.605 40.849 126.215 41.0214C125.852 41.1675 125.476 41.3723 125.087 41.6358C124.712 41.8862 124.434 42.1944 124.255 42.5605C124.152 42.7566 124.102 42.9588 124.104 43.1672C124.118 43.3624 124.152 43.5639 124.206 43.7718C124.273 43.9666 124.352 44.1678 124.445 44.3754C124.551 44.5699 124.644 44.7645 124.723 44.9592C124.932 45.0096 125.062 45.0346 125.115 45.0342C125.141 45.047 125.173 45.0532 125.212 45.0529C125.251 45.0526 125.284 45.0524 125.31 45.0522C125.571 45.0761 125.805 45.0677 126.013 45.027C126.156 45.0259 126.338 44.9984 126.559 44.9445C126.897 44.8767 127.222 44.7895 127.534 44.6829C127.845 44.5632 128.131 44.4372 128.39 44.3049C128.688 44.1593 128.98 44.0008 129.265 43.8292C129.55 43.6577 129.79 43.48 129.984 43.2961C130.113 43.1779 130.236 43.0532 130.352 42.9221C130.416 42.8565 130.462 42.804 130.487 42.7648C130.552 42.6731 130.603 42.6076 130.642 42.5682C130.681 42.5158 130.713 42.457 130.738 42.3917C130.79 42.3001 130.815 42.2283 130.815 42.1762C130.827 42.1501 130.834 42.1175 130.833 42.0784C130.846 42.0392 130.859 42.0066 130.872 41.9804L130.87 41.7656C130.857 41.7136 130.85 41.6746 130.849 41.6486C130.849 41.6225 130.843 41.5965 130.829 41.5706C130.79 41.4798 130.75 41.415 130.711 41.3762C130.684 41.3243 130.651 41.2725 130.612 41.2208C130.625 41.2337 130.605 41.2143 130.553 41.1626C130.513 41.1109 130.487 41.0785 130.474 41.0656L130.316 40.9106C130.251 40.8721 130.179 40.8271 130.1 40.7756C130.022 40.7241 129.943 40.6857 129.865 40.6603ZM135.316 48.1952C135.134 48.2618 134.932 48.2439 134.71 48.1415C134.501 48.039 134.382 47.8837 134.355 47.6755C134.163 46.5312 134.037 45.3993 133.976 44.28C133.928 43.1475 133.899 42.0084 133.89 40.8626C133.889 40.6673 133.939 40.5106 134.043 40.3926C134.146 40.2746 134.269 40.1955 134.412 40.1553C134.555 40.1151 134.705 40.1074 134.861 40.1322C135.017 40.157 135.148 40.2211 135.253 40.3244C135.551 40.0746 135.868 39.8572 136.205 39.6723C136.542 39.4873 136.88 39.3674 137.218 39.3126C137.569 39.2447 137.914 39.2615 138.253 39.363C138.593 39.4514 138.913 39.6507 139.215 39.9608C139.465 40.2192 139.682 40.4975 139.866 40.7955C140.051 41.0805 140.216 41.3852 140.362 41.7095C140.553 41.2132 140.823 40.7553 141.171 40.3359C141.52 39.9164 141.967 39.6329 142.512 39.4853C142.915 39.3779 143.234 39.4015 143.47 39.5558C143.705 39.6972 143.929 39.9233 144.139 40.2341C144.363 40.5579 144.568 40.8883 144.753 41.2254C144.951 41.5623 145.136 41.9059 145.308 42.2561C145.48 42.6063 145.646 42.9566 145.805 43.3069C145.964 43.6572 146.123 44.001 146.282 44.3383C146.467 44.7144 146.626 45.0908 146.759 45.4673C146.905 45.8308 147 46.2206 147.042 46.637C147.07 46.8581 146.993 47.0475 146.812 47.2052C146.644 47.3498 146.462 47.4229 146.267 47.4244C146.046 47.4262 145.863 47.356 145.718 47.214C145.587 47.0587 145.507 46.8706 145.48 46.6494C145.451 46.3371 145.364 46.0384 145.219 45.753C145.086 45.4546 144.953 45.1627 144.821 44.8773C144.675 44.5789 144.53 44.2741 144.384 43.9628C144.251 43.6513 144.112 43.3464 143.967 43.0481C143.821 42.7498 143.662 42.4515 143.491 42.1534C143.332 41.8552 143.16 41.5636 142.976 41.2786C142.949 41.2397 142.923 41.2009 142.897 41.162C142.87 41.1232 142.844 41.0843 142.818 41.0454C142.558 41.1907 142.371 41.329 142.255 41.4601C142.138 41.5912 142.029 41.7679 141.927 41.9901C141.837 42.1861 141.761 42.395 141.697 42.6169C141.647 42.8257 141.603 43.0409 141.566 43.2625C141.491 43.6798 141.436 44.1164 141.4 44.5725C141.377 44.9112 141.38 45.2367 141.408 45.549C141.45 45.8612 141.439 46.1868 141.377 46.5258C141.339 46.7345 141.217 46.8917 141.01 46.9975C140.815 47.1032 140.62 47.1308 140.424 47.0803C140.242 47.0297 140.104 46.9396 140.012 46.8102C139.933 46.6676 139.879 46.5052 139.852 46.3231C139.796 45.9069 139.734 45.4777 139.666 45.0355C139.597 44.5933 139.509 44.1578 139.401 43.729C139.294 43.2871 139.154 42.865 138.981 42.4628C138.822 42.0473 138.61 41.6649 138.347 41.3154C138.163 41.0825 137.973 40.9278 137.777 40.8512C137.594 40.7745 137.366 40.8089 137.094 40.9543C136.796 41.1129 136.504 41.3041 136.22 41.5277C135.935 41.7513 135.683 42.0007 135.464 42.2759C135.484 43.1091 135.516 43.9422 135.562 44.7752C135.621 45.5951 135.718 46.4146 135.855 47.2339C135.883 47.455 135.852 47.6571 135.762 47.8401C135.685 48.01 135.537 48.1284 135.316 48.1952ZM148.573 40.2574C148.818 39.9169 149.109 39.6151 149.445 39.352C149.795 39.0888 150.164 38.884 150.554 38.7377C150.943 38.5783 151.346 38.497 151.763 38.4937C152.179 38.4773 152.596 38.5521 153.014 38.7181C153.419 38.8711 153.786 39.0831 154.113 39.3539C154.441 39.6117 154.697 39.9482 154.883 40.3634C155.029 40.6748 155.116 41.0126 155.145 41.377C155.174 41.7414 155.079 42.0742 154.86 42.3754C154.667 42.6504 154.428 42.8606 154.142 43.0061C153.87 43.1515 153.571 43.2581 153.246 43.3258C152.934 43.3934 152.609 43.4285 152.271 43.4312C151.945 43.4338 151.633 43.4298 151.333 43.4191C150.994 43.4088 150.656 43.3855 150.317 43.3491C149.991 43.3126 149.659 43.2762 149.32 43.2398C149.429 43.8249 149.641 44.3441 149.957 44.7973C150.273 45.2505 150.699 45.5922 151.235 45.8223C151.379 45.8733 151.49 45.9115 151.568 45.9369C151.607 45.9496 151.64 45.9623 151.666 45.9752C151.705 45.9748 151.744 45.9745 151.783 45.9742C151.887 45.9864 151.972 45.9988 152.037 46.0113C152.115 46.0106 152.187 46.0036 152.252 45.99C152.343 45.9763 152.401 45.9693 152.428 45.9691C152.466 45.9558 152.505 45.9424 152.544 45.9291C152.687 45.8889 152.811 45.8423 152.914 45.7894C153.031 45.7364 153.167 45.6507 153.322 45.5323C153.4 45.4665 153.503 45.3681 153.633 45.2368C153.762 45.1056 153.872 44.9875 153.962 44.8826C154.091 44.6993 154.246 44.5744 154.428 44.5078C154.622 44.4411 154.818 44.4656 155.014 44.5813C155.184 44.6841 155.303 44.8459 155.37 45.0667C155.449 45.2744 155.425 45.4699 155.296 45.6533C154.923 46.1641 154.477 46.6038 153.959 46.9726C153.454 47.3281 152.87 47.5216 152.206 47.5529C151.672 47.5832 151.157 47.4962 150.661 47.2918C150.164 47.0744 149.726 46.7849 149.345 46.4233C148.873 45.9714 148.497 45.447 148.219 44.8502C147.941 44.2535 147.786 43.6427 147.755 43.0179C147.638 42.9277 147.546 42.8178 147.479 42.6881C147.426 42.5453 147.405 42.4022 147.417 42.2589C147.442 42.1154 147.493 41.9848 147.571 41.867C147.648 41.7362 147.764 41.6506 147.92 41.6103C148.059 41.1274 148.277 40.6764 148.573 40.2574ZM153.264 40.6888C153.12 40.5077 152.897 40.3467 152.597 40.2058C152.348 40.1036 152.055 40.0539 151.716 40.0566C151.391 40.0592 151.111 40.12 150.878 40.2391C150.58 40.3847 150.314 40.5886 150.082 40.8509C149.85 41.1001 149.663 41.3816 149.522 41.6952C149.835 41.7318 150.148 41.7684 150.461 41.8049C150.774 41.8415 151.086 41.8651 151.399 41.8756C151.568 41.8742 151.737 41.8729 151.907 41.8715C152.076 41.8702 152.245 41.8623 152.414 41.848C152.466 41.8476 152.512 41.8472 152.551 41.8469C152.603 41.8334 152.655 41.8265 152.707 41.8261C152.824 41.7991 152.909 41.7854 152.961 41.785C153.026 41.7715 153.091 41.7514 153.155 41.7249C153.207 41.7114 153.272 41.6914 153.35 41.6647C153.415 41.6382 153.454 41.6183 153.467 41.6052C153.48 41.5921 153.499 41.5789 153.525 41.5657L153.582 41.3308C153.556 41.279 153.536 41.2336 153.522 41.1946C153.522 41.1425 153.509 41.097 153.482 41.0582C153.469 41.0192 153.436 40.9609 153.383 40.8832C153.343 40.8054 153.304 40.7406 153.264 40.6888ZM162.307 35.6557C162.099 35.6834 161.916 35.6133 161.758 35.4452C161.601 35.2772 161.521 35.0891 161.519 34.8807C161.518 34.6594 161.594 34.483 161.749 34.3515C161.905 34.2071 162.086 34.121 162.294 34.0933C162.945 34.036 163.589 34.0048 164.227 33.9998C164.865 33.9947 165.51 34.0091 166.161 34.043C166.343 33.9764 166.538 33.9879 166.747 34.0774C167.959 34.1589 169.184 34.3054 170.423 34.5169C170.632 34.5543 170.789 34.6767 170.895 34.8842C171 35.0917 171.022 35.2869 170.958 35.4697C170.895 35.6915 170.772 35.8488 170.591 35.9414C170.422 36.0208 170.227 36.0484 170.005 36.0241C169.51 35.9369 169.021 35.8627 168.539 35.8014C168.056 35.7402 167.568 35.692 167.073 35.6569C166.897 36.5697 166.794 37.482 166.762 38.3938C166.743 39.3054 166.783 40.2296 166.882 41.1664C166.981 42.1291 167.119 43.0851 167.295 44.0342C167.472 44.9704 167.655 45.913 167.845 46.862C167.886 47.083 167.862 47.2851 167.772 47.4681C167.695 47.6379 167.546 47.7563 167.326 47.8232C167.131 47.8898 166.929 47.8719 166.72 47.7694C166.523 47.6668 166.405 47.5115 166.364 47.3035C166.148 46.2505 165.938 45.2105 165.734 44.1834C165.543 43.1432 165.398 42.0962 165.299 41.0422C165.213 40.1184 165.187 39.2006 165.218 38.2889C165.25 37.3771 165.347 36.4714 165.509 35.5716C164.441 35.5411 163.374 35.5691 162.307 35.6557ZM174.753 38.6231C175.169 38.5677 175.605 38.5512 176.061 38.5737C176.517 38.5831 176.953 38.6577 177.371 38.7976C177.789 38.9245 178.168 39.1233 178.509 39.394C178.85 39.6648 179.113 40.0208 179.299 40.462C179.431 40.7735 179.499 41.0919 179.502 41.4175C179.517 41.7298 179.474 42.0362 179.372 42.3365C179.283 42.6237 179.142 42.9047 178.949 43.1797C178.769 43.4416 178.556 43.6842 178.31 43.9075C177.78 44.3935 177.198 44.8083 176.562 45.1519C175.927 45.4955 175.259 45.7613 174.557 45.9492C174.258 46.0297 173.946 46.1038 173.621 46.1715C173.309 46.226 172.99 46.2546 172.665 46.2572C172.339 46.2598 172.02 46.2298 171.707 46.1672C171.394 46.0915 171.1 45.9702 170.825 45.8031C170.629 45.6874 170.511 45.5321 170.47 45.3371C170.39 45.1164 170.304 44.9088 170.211 44.7142C170.118 44.5196 170.026 44.3185 169.933 44.1109C169.853 43.9032 169.786 43.6954 169.733 43.4875C169.679 43.2796 169.651 43.0649 169.649 42.8436C169.646 42.4009 169.734 41.9835 169.913 41.5915C170.105 41.1863 170.362 40.8326 170.686 40.5306C171.228 40.0054 171.856 39.5837 172.57 39.2655C173.284 38.9473 174.011 38.7332 174.753 38.6231ZM176.973 40.2852C176.62 40.1578 176.242 40.0957 175.839 40.0989C175.409 40.0893 174.979 40.1383 174.551 40.2459C174.122 40.3405 173.713 40.4739 173.323 40.6463C172.96 40.7924 172.584 40.9973 172.195 41.2608C171.82 41.5112 171.542 41.8194 171.363 42.1854C171.26 42.3815 171.21 42.5838 171.211 42.7921C171.226 42.9873 171.26 43.1889 171.314 43.3968C171.381 43.5916 171.46 43.7927 171.553 44.0003C171.659 44.1948 171.751 44.3894 171.831 44.5841C172.04 44.6345 172.17 44.6595 172.222 44.6591C172.249 44.6719 172.281 44.6782 172.32 44.6779C172.359 44.6775 172.392 44.6773 172.418 44.6771C172.678 44.701 172.913 44.6927 173.121 44.6519C173.264 44.6508 173.446 44.6233 173.667 44.5695C174.005 44.5017 174.33 44.4145 174.642 44.3078C174.953 44.1881 175.239 44.0622 175.498 43.9299C175.796 43.7843 176.088 43.6257 176.373 43.4541C176.658 43.2826 176.898 43.1049 177.092 42.9211C177.221 42.8028 177.344 42.6782 177.46 42.547C177.524 42.4814 177.569 42.429 177.595 42.3897C177.66 42.298 177.711 42.2325 177.75 42.1931C177.788 42.1407 177.821 42.0819 177.846 42.0166C177.897 41.925 177.923 41.8532 177.922 41.8011C177.935 41.775 177.942 41.7424 177.941 41.7033C177.954 41.6642 177.967 41.6315 177.98 41.6054L177.978 41.3905C177.964 41.3385 177.958 41.2995 177.957 41.2735C177.957 41.2475 177.95 41.2215 177.937 41.1955C177.897 41.1047 177.858 41.0399 177.818 41.0012C177.792 40.9493 177.759 40.8975 177.72 40.8457C177.733 40.8586 177.713 40.8392 177.661 40.7876C177.621 40.7358 177.595 40.7034 177.582 40.6905L177.424 40.5355C177.359 40.497 177.287 40.452 177.208 40.4005C177.13 40.3491 177.051 40.3106 176.973 40.2852ZM186.232 35.4652C186.024 35.4929 185.841 35.4228 185.683 35.2548C185.526 35.0867 185.446 34.8986 185.444 34.6902C185.443 34.4689 185.519 34.2925 185.674 34.161C185.83 34.0166 186.011 33.9305 186.219 33.9028C186.87 33.8455 187.514 33.8144 188.152 33.8093C188.79 33.8042 189.435 33.8186 190.086 33.8525C190.268 33.7859 190.463 33.7974 190.672 33.8869C191.884 33.9684 193.109 34.1149 194.348 34.3264C194.557 34.3638 194.714 34.4862 194.82 34.6937C194.925 34.9012 194.947 35.0964 194.883 35.2792C194.82 35.501 194.697 35.6583 194.516 35.7509C194.347 35.8303 194.152 35.8579 193.93 35.8336C193.435 35.7464 192.946 35.6722 192.464 35.6109C191.981 35.5497 191.493 35.5015 190.998 35.4664C190.822 36.3792 190.719 37.2916 190.687 38.2033C190.668 39.1149 190.708 40.0391 190.807 40.9759C190.906 41.9386 191.044 42.8946 191.22 43.8438C191.397 44.7799 191.58 45.7225 191.77 46.6715C191.811 46.8925 191.787 47.0946 191.697 47.2776C191.62 47.4475 191.471 47.5658 191.251 47.6327C191.056 47.6994 190.854 47.6814 190.645 47.5789C190.449 47.4763 190.33 47.321 190.289 47.113C190.073 46.06 189.863 45.02 189.659 43.9929C189.468 42.9527 189.323 41.9057 189.224 40.8517C189.138 39.9279 189.112 39.0101 189.143 38.0984C189.175 37.1867 189.272 36.2809 189.434 35.3811C188.366 35.3506 187.299 35.3786 186.232 35.4652ZM194.724 39.89C194.969 39.5495 195.26 39.2477 195.596 38.9845C195.945 38.7213 196.315 38.5166 196.704 38.3702C197.094 38.2109 197.497 38.1295 197.913 38.1262C198.33 38.1099 198.747 38.1847 199.165 38.3506C199.57 38.5037 199.936 38.7156 200.264 38.9864C200.592 39.2443 200.848 39.5808 201.034 39.996C201.18 40.3073 201.267 40.6452 201.296 41.0095C201.325 41.3739 201.23 41.7067 201.011 42.0079C200.818 42.2829 200.578 42.4932 200.293 42.6387C200.021 42.7841 199.722 42.8906 199.397 42.9583C199.085 43.0259 198.76 43.061 198.421 43.0637C198.096 43.0663 197.783 43.0623 197.484 43.0517C197.145 43.0414 196.806 43.018 196.468 42.9816C196.142 42.9452 195.809 42.9088 195.471 42.8724C195.579 43.4575 195.792 43.9766 196.108 44.4299C196.424 44.8831 196.85 45.2248 197.386 45.4549C197.529 45.5058 197.64 45.544 197.719 45.5694C197.758 45.5821 197.791 45.5949 197.817 45.6077C197.856 45.6074 197.895 45.6071 197.934 45.6068C198.038 45.619 198.123 45.6313 198.188 45.6438C198.266 45.6432 198.338 45.6361 198.403 45.6226C198.494 45.6088 198.552 45.6018 198.578 45.6016C198.617 45.5883 198.656 45.575 198.695 45.5616C198.838 45.5214 198.962 45.4749 199.065 45.422C199.182 45.369 199.318 45.2832 199.473 45.1648C199.551 45.0991 199.654 45.0006 199.784 44.8694C199.913 44.7381 200.022 44.6201 200.113 44.5152C200.242 44.3318 200.397 44.2069 200.579 44.1404C200.773 44.0737 200.969 44.0982 201.165 44.2138C201.335 44.3166 201.454 44.4784 201.521 44.6993C201.6 44.907 201.576 45.1025 201.447 45.2858C201.074 45.7966 200.628 46.2364 200.11 46.6051C199.605 46.9607 199.02 47.1542 198.357 47.1855C197.823 47.2158 197.308 47.1287 196.812 46.9243C196.315 46.7069 195.876 46.4174 195.496 46.0559C195.024 45.6039 194.648 45.0795 194.37 44.4828C194.092 43.886 193.937 43.2752 193.906 42.6505C193.788 42.5602 193.696 42.4503 193.63 42.3206C193.577 42.1778 193.556 42.0347 193.568 41.8914C193.593 41.748 193.644 41.6174 193.721 41.4996C193.798 41.3687 193.915 41.2832 194.071 41.2429C194.21 40.76 194.428 40.309 194.724 39.89ZM199.415 40.3214C199.271 40.1402 199.048 39.9792 198.747 39.8384C198.499 39.7362 198.206 39.6864 197.867 39.6891C197.542 39.6917 197.262 39.7526 197.029 39.8716C196.731 40.0172 196.465 40.2212 196.233 40.4834C196.001 40.7327 195.814 41.0141 195.673 41.3278C195.986 41.3643 196.299 41.4009 196.612 41.4375C196.924 41.474 197.237 41.4976 197.55 41.5081C197.719 41.5068 197.888 41.5054 198.057 41.5041C198.227 41.5027 198.396 41.4949 198.565 41.4805C198.617 41.4801 198.663 41.4797 198.702 41.4794C198.754 41.466 198.806 41.4591 198.858 41.4587C198.975 41.4317 199.059 41.418 199.112 41.4176C199.177 41.404 199.241 41.384 199.306 41.3574C199.358 41.344 199.423 41.3239 199.501 41.2973C199.566 41.2707 199.605 41.2509 199.618 41.2378C199.631 41.2246 199.65 41.2115 199.676 41.1982L199.733 40.9634C199.706 40.9115 199.687 40.8661 199.673 40.8271C199.673 40.7751 199.659 40.7296 199.633 40.6907C199.62 40.6518 199.587 40.5934 199.534 40.5157C199.494 40.4379 199.455 40.3731 199.415 40.3214ZM204.057 32.0615C204.291 32.0596 204.474 32.1363 204.606 32.2915C204.737 32.4467 204.817 32.6284 204.844 32.8365C204.984 34.0724 205.066 35.3088 205.089 36.5456C205.111 37.7824 205.102 39.0195 205.06 40.2569C205.03 41.4941 204.975 42.7316 204.894 43.9693C204.812 45.2069 204.731 46.4381 204.65 47.6627C204.625 47.8843 204.542 48.0673 204.4 48.2116C204.271 48.3689 204.096 48.4484 203.875 48.4502C203.679 48.4517 203.496 48.3751 203.326 48.2202C203.156 48.0783 203.076 47.8966 203.087 47.6752C203.169 46.4505 203.25 45.2194 203.331 43.9817C203.426 42.7439 203.487 41.5064 203.517 40.2692C203.559 39.0318 203.569 37.7947 203.546 36.5579C203.523 35.3211 203.441 34.0847 203.301 32.8488C203.274 32.6407 203.344 32.4578 203.512 32.3002C203.68 32.1426 203.861 32.0631 204.057 32.0615ZM215.471 40.4084C215.493 41.528 215.58 42.6472 215.732 43.7658C215.884 44.8844 216.082 45.9896 216.325 47.0815C216.379 47.3285 216.335 47.5306 216.193 47.688C216.064 47.8583 215.909 47.9702 215.727 48.0238C215.545 48.0773 215.363 48.0657 215.18 47.9891C214.997 47.9124 214.879 47.7506 214.824 47.5036C214.662 46.7627 214.52 46.0346 214.397 45.3194C214.345 45.385 214.3 45.4504 214.262 45.5158C214.223 45.5682 214.178 45.6272 214.126 45.6927C213.869 46.0073 213.571 46.2831 213.235 46.5201C212.898 46.7442 212.535 46.9229 212.145 47.0562C211.768 47.1764 211.378 47.2446 210.975 47.2608C210.571 47.277 210.174 47.2346 209.782 47.1336C209.091 46.9438 208.561 46.6094 208.192 46.1306C207.824 45.6517 207.559 45.1069 207.398 44.4962C207.237 43.8725 207.141 43.2287 207.109 42.5649C207.078 41.888 207.053 41.2632 207.036 40.6904C207.034 40.443 207.11 40.2601 207.266 40.1417C207.421 40.0102 207.596 39.9437 207.791 39.9422C207.987 39.9406 208.163 40.0043 208.32 40.1333C208.491 40.2491 208.583 40.4307 208.598 40.678C208.615 41.1987 208.626 41.7259 208.63 42.2598C208.648 42.7935 208.71 43.2943 208.818 43.7622C208.872 44.0222 208.933 44.2496 208.999 44.4444C209.066 44.6262 209.171 44.8207 209.316 45.0278C209.382 45.1185 209.415 45.1703 209.415 45.1833C209.428 45.1962 209.448 45.2091 209.474 45.2219C209.671 45.3766 209.802 45.4732 209.867 45.5118C209.932 45.5373 210.011 45.5627 210.102 45.588C210.65 45.7399 211.203 45.7225 211.762 45.5357C212.32 45.336 212.767 44.9874 213.101 44.4899C213.294 44.1758 213.435 43.8492 213.523 43.5099C213.625 43.1706 213.694 42.8315 213.73 42.4926C213.766 42.1408 213.789 41.789 213.8 41.4373C213.823 41.0726 213.859 40.7142 213.908 40.3622C213.905 39.9716 214.001 39.7169 214.195 39.5982C214.402 39.4663 214.617 39.4191 214.839 39.4564C214.969 39.4944 215.074 39.5391 215.152 39.5906L215.31 39.7261C215.455 39.9593 215.509 40.1867 215.471 40.4084ZM218.519 42.9428C218.178 42.6981 217.935 42.394 217.789 42.0306C217.643 41.6542 217.633 41.2571 217.76 40.8394C217.887 40.4608 218.086 40.1206 218.357 39.819C218.628 39.5173 218.939 39.274 219.289 39.0889C219.678 38.8774 220.093 38.7114 220.535 38.5907C220.977 38.47 221.425 38.4013 221.881 38.3846C222.337 38.368 222.786 38.41 223.23 38.5106C223.686 38.5981 224.117 38.7444 224.522 38.9496C224.745 39.065 224.87 39.2202 224.897 39.4153C224.925 39.6104 224.887 39.793 224.784 39.9631C224.695 40.1331 224.552 40.258 224.358 40.3376C224.163 40.4173 223.954 40.3994 223.732 40.284C223.418 40.1172 223.066 40.0094 222.675 39.9604C222.284 39.9114 221.887 39.9146 221.484 39.9699C221.093 40.012 220.723 40.1127 220.373 40.2717C220.022 40.4307 219.731 40.6349 219.499 40.8841C219.434 40.9498 219.389 40.9957 219.363 41.0219C219.35 41.0481 219.325 41.1069 219.286 41.1983L219.249 41.4135C219.289 41.5304 219.322 41.6017 219.348 41.6276C219.61 41.7947 219.878 41.9033 220.152 41.9532C220.438 41.99 220.725 42.0137 221.012 42.0245C221.415 42.0473 221.826 42.0701 222.243 42.0928C222.672 42.1024 223.083 42.1512 223.474 42.2393C223.879 42.3272 224.251 42.474 224.591 42.6796C224.931 42.8852 225.22 43.1889 225.458 43.5907C225.722 44.0443 225.843 44.5186 225.821 45.0136C225.811 45.4955 225.626 45.9332 225.265 46.3267C224.903 46.7202 224.482 46.997 224.002 47.1571C223.521 47.3041 223.034 47.4122 222.539 47.4812C222.097 47.5368 221.635 47.5535 221.153 47.5313C220.684 47.509 220.228 47.4345 219.784 47.3079C219.353 47.1941 218.948 47.015 218.569 46.7706C218.189 46.5132 217.874 46.1772 217.623 45.7625C217.504 45.5551 217.483 45.36 217.56 45.1771C217.637 44.9811 217.753 44.837 217.908 44.7446C218.077 44.6391 218.259 44.5986 218.454 44.623C218.663 44.6474 218.833 44.7633 218.965 44.9706C219.149 45.2686 219.405 45.4944 219.732 45.6481C220.059 45.8017 220.411 45.9096 220.789 45.9717C221.18 46.0207 221.571 46.0306 221.961 46.0014C222.352 45.9592 222.703 45.9044 223.015 45.8368C223.184 45.7964 223.352 45.7429 223.521 45.6765C223.703 45.5969 223.852 45.5046 223.968 45.3995C224.098 45.2943 224.188 45.1764 224.239 45.0458C224.29 44.9021 224.282 44.7459 224.216 44.5772C224.083 44.2527 223.86 44.0201 223.546 43.8794C223.245 43.7385 222.926 43.6564 222.587 43.6331C222.248 43.6097 221.903 43.5995 221.551 43.6023C221.2 43.6051 220.848 43.5948 220.497 43.5716C220.145 43.5353 219.799 43.473 219.46 43.3845C219.121 43.2961 218.807 43.1488 218.519 42.9428ZM227.68 42.987C227.626 42.8312 227.618 42.6685 227.656 42.4989C227.553 40.9242 227.442 39.3625 227.326 37.8139C227.209 36.2523 227.203 34.6833 227.308 33.1069C227.332 32.8853 227.409 32.7024 227.538 32.5582C227.68 32.4008 227.862 32.3212 228.083 32.3194C228.291 32.3178 228.481 32.3944 228.651 32.5493C228.822 32.6912 228.895 32.8729 228.87 33.0944C228.778 34.5145 228.776 35.9208 228.865 37.3134C228.954 38.6929 229.05 40.0919 229.152 41.5104C229.878 41.0489 230.603 40.6004 231.329 40.1649C232.068 39.7293 232.787 39.2679 233.486 38.7805C233.693 38.6356 233.888 38.6015 234.071 38.6782C234.267 38.7418 234.411 38.8578 234.504 39.0263C234.609 39.1948 234.65 39.3833 234.625 39.5918C234.601 39.8003 234.485 39.977 234.278 40.1219C233.579 40.6093 232.866 41.0707 232.141 41.5062C231.428 41.9285 230.709 42.364 229.983 42.8125C230.86 43.3914 231.731 43.977 232.595 44.5691C233.459 45.1612 234.304 45.786 235.129 46.4435C235.3 46.5853 235.379 46.7735 235.368 47.008C235.357 47.2294 235.28 47.4123 235.138 47.5567C234.97 47.7143 234.782 47.7874 234.573 47.7761C234.378 47.7646 234.195 47.6944 234.025 47.5656C233.265 46.9596 232.492 46.3863 231.706 45.8457C230.921 45.3051 230.122 44.7645 229.311 44.2241C229.328 44.7188 229.332 45.2201 229.323 45.728C229.327 46.2358 229.318 46.7371 229.295 47.2321C229.284 47.4926 229.195 47.6822 229.027 47.8007C228.871 47.9321 228.696 47.9986 228.501 48.0002C228.305 48.0018 228.129 47.9381 227.972 47.8091C227.815 47.6932 227.742 47.5049 227.753 47.2444C227.773 46.5411 227.774 45.8379 227.755 45.1349C227.75 44.4188 227.724 43.7029 227.68 42.987ZM240.336 38.101C240.753 38.0456 241.189 38.0291 241.645 38.0515C242.101 38.0609 242.537 38.1355 242.955 38.2754C243.373 38.4023 243.752 38.6011 244.093 38.8719C244.433 39.1426 244.697 39.4986 244.882 39.9398C245.015 40.2513 245.083 40.5698 245.085 40.8953C245.101 41.2077 245.058 41.514 244.956 41.8143C244.867 42.1015 244.726 42.3826 244.533 42.6575C244.353 42.9194 244.14 43.162 243.894 43.3853C243.364 43.8713 242.782 44.2861 242.146 44.6297C241.511 44.9733 240.842 45.2391 240.141 45.427C239.842 45.5075 239.53 45.5816 239.205 45.6493C238.893 45.7038 238.574 45.7324 238.249 45.735C237.923 45.7376 237.604 45.7076 237.291 45.645C236.978 45.5693 236.684 45.448 236.409 45.2809C236.213 45.1653 236.094 45.01 236.054 44.815C235.974 44.5942 235.888 44.3866 235.795 44.192C235.702 43.9974 235.609 43.7963 235.517 43.5887C235.437 43.381 235.37 43.1732 235.316 42.9653C235.263 42.7574 235.235 42.5428 235.233 42.3214C235.23 41.8787 235.317 41.4613 235.497 41.0693C235.689 40.6641 235.946 40.3105 236.269 40.0084C236.812 39.4832 237.44 39.0616 238.154 38.7434C238.868 38.4252 239.595 38.211 240.336 38.101ZM242.557 39.763C242.204 39.6356 241.826 39.5735 241.422 39.5767C240.993 39.5671 240.563 39.6161 240.135 39.7237C239.706 39.8183 239.296 39.9518 238.907 40.1241C238.544 40.2703 238.168 40.4751 237.779 40.7386C237.404 40.989 237.126 41.2972 236.947 41.6632C236.844 41.8594 236.794 42.0616 236.795 42.2699C236.81 42.4651 236.844 42.6667 236.898 42.8746C236.964 43.0694 237.044 43.2706 237.137 43.4782C237.243 43.6726 237.335 43.8672 237.415 44.0619C237.624 44.1123 237.754 44.1373 237.806 44.1369C237.832 44.1497 237.865 44.156 237.904 44.1557C237.943 44.1554 237.976 44.1551 238.002 44.1549C238.262 44.1789 238.497 44.1705 238.705 44.1298C238.848 44.1286 239.03 44.1011 239.251 44.0473C239.589 43.9795 239.914 43.8923 240.225 43.7856C240.537 43.6659 240.822 43.54 241.082 43.4077C241.38 43.2621 241.672 43.1035 241.957 42.932C242.242 42.7604 242.482 42.5827 242.675 42.3989C242.805 42.2807 242.927 42.156 243.044 42.0248C243.108 41.9592 243.153 41.9068 243.179 41.8675C243.243 41.7759 243.295 41.7103 243.334 41.671C243.372 41.6186 243.404 41.5597 243.43 41.4944C243.481 41.4029 243.507 41.331 243.506 41.279C243.519 41.2528 243.525 41.2202 243.525 41.1811C243.538 41.142 243.551 41.1093 243.563 41.0832L243.562 40.8683C243.548 40.8164 243.541 40.7774 243.541 40.7513C243.541 40.7253 243.534 40.6993 243.521 40.6733C243.481 40.5825 243.442 40.5177 243.402 40.479C243.376 40.4271 243.343 40.3753 243.303 40.3235C243.317 40.3364 243.297 40.317 243.244 40.2654C243.205 40.2136 243.179 40.1813 243.165 40.1683L243.008 40.0133C242.943 39.9748 242.871 39.9298 242.792 39.8783C242.714 39.8269 242.635 39.7884 242.557 39.763Z" fill="white"/>
</g>
<defs>
<clipPath id="clip0_35_4">
<rect width="249" height="131" fill="white"/>
</clipPath>
</defs>
</svg>
